<svg width="200" height="15" viewBox="0 0 200 15" fill="none" xmlns="http://www.w3.org/2000/svg">
<path d="M194.607 1.23289C191.333 4.29921 190.201 7.04719 183.188 8.54592C174.555 10.3922 165.962 5.98698 161.708 2.37496C160.24 1.12829 156.68 0.888573 155.309 2.37496C149.3 8.89024 135.991 7.29926 130.312 1.01136C128.916 -0.535446 124.195 -0.259344 123.615 1.51029C120.424 11.2575 106.096 12.2892 96.5007 5.2243C97.548 3.32214 92.0846 2.02739 90.5951 3.88927C82.5402 13.9607 66.8144 12.8355 57.6871 3.8477C56.103 2.2879 52.5542 2.83491 51.5308 4.30635C44.1129 14.9761 32.5594 9.90044 26.076 2.55621C24.8133 1.12505 21.212 1.62072 20.4508 2.97523C16.9077 9.28327 11.0705 10.4611 1.23659 12.093C-0.615315 12.4009 -0.329268 14.2329 1.70725 14.0783C12.9748 13.2221 19.1288 12.0793 23.734 7.29601C33.1953 15.718 46.4036 17.4383 55.2665 8.57646C66.7586 16.7769 85.2194 17.7117 94.3661 7.9554C104.526 15.8336 121.565 15.4458 128.388 6.86075C137.19 12.7797 150.002 13.6112 158.866 6.98743C172.057 14.548 199.036 16.2403 199.997 2.06703C200.117 0.376654 196.055 -0.124219 194.607 1.23289Z" fill="#00B2A0"/>
</svg>
